<mxfile host="app.diagrams.net" modified="2023-06-13T15:16:13.635Z" agent="Mozilla/5.0 (Windows NT 10.0; Win64; x64) AppleWebKit/537.36 (KHTML, like Gecko) Chrome/114.0.0.0 Safari/537.36 Edg/114.0.1823.43" etag="1nT7R5_fRmkH-reJYzmn" version="21.3.8" type="github">
  <diagram id="C5RBs43oDa-KdzZeNtuy" name="Page-1">
    <mxGraphModel dx="1434" dy="1925" grid="1" gridSize="10" guides="1" tooltips="1" connect="1" arrows="1" fold="1" page="1" pageScale="1" pageWidth="827" pageHeight="1169" math="0" shadow="0">
      <root>
        <mxCell id="WIyWlLk6GJQsqaUBKTNV-0" />
        <mxCell id="WIyWlLk6GJQsqaUBKTNV-1" parent="WIyWlLk6GJQsqaUBKTNV-0" />
        <mxCell id="CYA5MN_NNPej15P1eRmX-8" value="&lt;h1&gt;&lt;font color=&quot;#ff0000&quot;&gt;家园&lt;/font&gt;&lt;/h1&gt;" style="shape=cube;whiteSpace=wrap;html=1;boundedLbl=1;backgroundOutline=1;darkOpacity=0.05;darkOpacity2=0.1;" vertex="1" parent="WIyWlLk6GJQsqaUBKTNV-1">
          <mxGeometry x="40" y="-10" width="480" height="430" as="geometry" />
        </mxCell>
        <mxCell id="CYA5MN_NNPej15P1eRmX-1" value="Home" style="rounded=1;whiteSpace=wrap;html=1;" vertex="1" parent="WIyWlLk6GJQsqaUBKTNV-1">
          <mxGeometry x="170" y="100" width="220" height="60" as="geometry" />
        </mxCell>
        <mxCell id="CYA5MN_NNPej15P1eRmX-2" value="铁匠铺" style="rounded=1;whiteSpace=wrap;html=1;" vertex="1" parent="WIyWlLk6GJQsqaUBKTNV-1">
          <mxGeometry x="120" y="290" width="90" height="50" as="geometry" />
        </mxCell>
        <mxCell id="CYA5MN_NNPej15P1eRmX-3" value="药" style="rounded=1;whiteSpace=wrap;html=1;" vertex="1" parent="WIyWlLk6GJQsqaUBKTNV-1">
          <mxGeometry x="120" y="220" width="90" height="40" as="geometry" />
        </mxCell>
        <mxCell id="CYA5MN_NNPej15P1eRmX-4" value="连接主大陆&lt;b&gt;出入口&lt;/b&gt;，防守点" style="rounded=0;whiteSpace=wrap;html=1;" vertex="1" parent="WIyWlLk6GJQsqaUBKTNV-1">
          <mxGeometry x="240" y="360" width="120" height="60" as="geometry" />
        </mxCell>
        <mxCell id="CYA5MN_NNPej15P1eRmX-5" value="传送门" style="rounded=1;whiteSpace=wrap;html=1;" vertex="1" parent="WIyWlLk6GJQsqaUBKTNV-1">
          <mxGeometry x="390" y="310" width="120" height="50" as="geometry" />
        </mxCell>
        <mxCell id="CYA5MN_NNPej15P1eRmX-6" value="与其他好友家园&lt;b&gt;连接处&lt;/b&gt;/默认未打通，任务或交人民币后打通" style="rounded=0;whiteSpace=wrap;html=1;" vertex="1" parent="WIyWlLk6GJQsqaUBKTNV-1">
          <mxGeometry x="420" y="140" width="100" height="60" as="geometry" />
        </mxCell>
        <mxCell id="CYA5MN_NNPej15P1eRmX-7" value="连接后的 &lt;b&gt;采矿/采药&lt;/b&gt; 点" style="rounded=1;whiteSpace=wrap;html=1;" vertex="1" parent="WIyWlLk6GJQsqaUBKTNV-1">
          <mxGeometry x="120" y="350" width="90" height="70" as="geometry" />
        </mxCell>
      </root>
    </mxGraphModel>
  </diagram>
</mxfile>
